<svg viewBox="0 0 279 33" xmlns="http://www.w3.org/2000/svg">
  <!-- Generator: sketchtool 46.2 (44496) - http://www.bohemiancoding.com/sketch -->
  <title>8D227D0F-9ECC-4A3C-87A8-66FC97F05282</title>
  <desc>Created with sketchtool.</desc>
  <defs/>
  <g id="bqPage-1" stroke="none" stroke-width="1" fill="none" fill-rule="evenodd">
    <g id="bqStyle" transform="translate(-983.000000, -1018.000000)">
      <g id="bqLogo-desktop" transform="translate(983.000000, 1018.000000)">
        <path d="M71.076,27.432 C75.936,27.432 78.888,24.912 80.724,22.032 L77.124,20.196 C75.972,22.212 73.668,23.688 71.076,23.688 C66.324,23.688 62.796,20.052 62.796,15.012 C62.796,9.972 66.324,6.336 71.076,6.336 C73.668,6.336 75.972,7.848 77.124,9.828 L80.724,7.992 C78.924,5.112 75.936,2.592 71.076,2.592 C63.984,2.592 58.476,7.632 58.476,15.012 C58.476,22.392 63.984,27.432 71.076,27.432 Z M98.352,27 L98.352,14.688 C98.352,11.124 96.48,9.18 92.736,9.18 C90,9.18 87.732,10.62 86.58,11.988 L86.58,2.988 L82.8,2.988 L82.8,27 L86.58,27 L86.58,14.868 C87.48,13.68 89.136,12.528 91.044,12.528 C93.168,12.528 94.572,13.356 94.572,16.056 L94.572,27 L98.352,27 Z M105.828,27 L105.828,15.156 C106.584,13.932 108.708,12.852 110.292,12.852 C110.76,12.852 111.156,12.888 111.48,12.96 L111.48,9.216 C109.212,9.216 107.124,10.512 105.828,12.168 L105.828,9.612 L102.048,9.612 L102.048,27 L105.828,27 Z M121.188,27.432 C115.68,27.432 112.26,23.292 112.26,18.288 C112.26,13.32 115.68,9.18 121.188,9.18 C126.768,9.18 130.152,13.32 130.152,18.288 C130.152,23.292 126.768,27.432 121.188,27.432 Z M121.188,24.084 C124.428,24.084 126.228,21.384 126.228,18.288 C126.228,15.228 124.428,12.528 121.188,12.528 C117.984,12.528 116.184,15.228 116.184,18.288 C116.184,21.384 117.984,24.084 121.188,24.084 Z M148.284,27 L148.284,14.76 C148.284,11.196 146.412,9.18 142.668,9.18 C139.932,9.18 137.7,10.62 136.548,11.988 L136.548,9.612 L132.768,9.612 L132.768,27 L136.548,27 L136.548,14.868 C137.412,13.68 139.068,12.528 141.012,12.528 C143.136,12.528 144.504,13.428 144.504,16.128 L144.504,27 L148.284,27 Z M159.828,27.432 C154.32,27.432 150.9,23.292 150.9,18.288 C150.9,13.32 154.32,9.18 159.828,9.18 C165.408,9.18 168.792,13.32 168.792,18.288 C168.792,23.292 165.408,27.432 159.828,27.432 Z M159.828,24.084 C163.068,24.084 164.868,21.384 164.868,18.288 C164.868,15.228 163.068,12.528 159.828,12.528 C156.624,12.528 154.824,15.228 154.824,18.288 C154.824,21.384 156.624,24.084 159.828,24.084 Z" id="bqChronobank.io" fill="#4B8FB9"/>
        <path d="M175.188,27 L171.408,27 L171.408,2.988 L175.188,2.988 L175.188,12.024 C176.556,10.188 178.572,9.18 180.768,9.18 C185.232,9.18 188.472,12.708 188.472,18.324 C188.472,24.048 185.196,27.432 180.768,27.432 C178.5,27.432 176.52,26.352 175.188,24.624 L175.188,27 Z M175.188,21.78 C176.016,23.076 177.888,24.084 179.652,24.084 C182.676,24.084 184.584,21.708 184.584,18.324 C184.584,14.94 182.676,12.528 179.652,12.528 C177.888,12.528 176.016,13.608 175.188,14.904 L175.188,21.78 Z" id="bqCombined-Shape" fill="#D9A162"/>
        <path d="M205.524,27 L201.744,27 L201.744,25.128 C200.448,26.604 198.432,27.432 196.128,27.432 C193.284,27.432 190.08,25.524 190.08,21.672 C190.08,17.676 193.284,16.02 196.128,16.02 C198.468,16.02 200.484,16.776 201.744,18.252 L201.744,15.66 C201.744,13.644 200.088,12.42 197.676,12.42 C195.732,12.42 194.04,13.14 192.528,14.616 L190.98,11.988 C192.996,10.08 195.516,9.18 198.288,9.18 C202.14,9.18 205.524,10.8 205.524,15.48 L205.524,27 Z M197.604,24.84 C199.26,24.84 200.88,24.228 201.744,23.04 L201.744,20.412 C200.88,19.224 199.26,18.612 197.604,18.612 C195.48,18.612 193.896,19.836 193.896,21.744 C193.896,23.616 195.48,24.84 197.604,24.84 Z" id="bqCombined-Shape" fill="#D9A162"/>
        <path d="M224.736,27 L224.736,14.76 C224.736,11.196 222.864,9.18 219.12,9.18 C216.384,9.18 214.152,10.62 213,11.988 L213,9.612 L209.22,9.612 L209.22,27 L213,27 L213,14.868 C213.864,13.68 215.52,12.528 217.464,12.528 C219.588,12.528 220.956,13.428 220.956,16.128 L220.956,27 L224.736,27 Z" id="bqPath" fill="#D9A162"/>
        <polygon id="bqPath" fill="#D9A162" points="244.704 27 237.324 17.496 244.56 9.612 239.88 9.612 232.212 18 232.212 2.988 228.432 2.988 228.432 27 232.212 27 232.212 22.32 234.624 19.836 239.952 27"/>
        <path d="M248.112,27.396 C249.48,27.396 250.632,26.244 250.632,24.876 C250.632,23.508 249.48,22.356 248.112,22.356 C246.744,22.356 245.592,23.508 245.592,24.876 C245.592,26.244 246.744,27.396 248.112,27.396 Z" id="bqPath" fill="#D9A162"/>
        <path d="M255.659999,7.488 C256.955999,7.488 257.999999,6.444 257.999999,5.148 C257.999999,3.852 256.955999,2.808 255.659999,2.808 C254.399999,2.808 253.319999,3.852 253.319999,5.148 C253.319999,6.444 254.399999,7.488 255.659999,7.488 Z" id="bqPath" fill="#D9A162"/>
        <polygon id="bqPath" fill="#D9A162" points="257.567999 27 257.567999 9.612 253.787999 9.612 253.787999 27"/>
        <path d="M269.111999,27.432 C263.603999,27.432 260.183999,23.292 260.183999,18.288 C260.183999,13.32 263.603999,9.18 269.111999,9.18 C274.691999,9.18 278.075999,13.32 278.075999,18.288 C278.075999,23.292 274.691999,27.432 269.111999,27.432 Z M269.111999,24.084 C272.351999,24.084 274.151999,21.384 274.151999,18.288 C274.151999,15.228 272.351999,12.528 269.111999,12.528 C265.907999,12.528 264.107999,15.228 264.107999,18.288 C264.107999,21.384 265.907999,24.084 269.111999,24.084 Z" id="bqCombined-Shape" fill="#D9A162"/>
        <g id="bqlogo-chronobank" fill-rule="nonzero">
          <g id="bqGroup-Copy">
            <path d="M46.3896369,6.63386841 C44.2390423,6.20182894 42.5413668,4.52707894 42.1034131,2.40596052 L45.2901313,2.40596052 C45.8957837,2.40596052 46.3896369,2.89184211 46.3896369,3.49018421 L46.3896369,6.63386841 Z M46.3896369,24.1837895 C43.0268571,24.6614211 40.3652433,27.2875263 39.8810733,30.6044605 L8.92149034,30.6044605 C8.43732047,27.2875263 5.77570654,24.6614211 2.41292664,24.1837895 L2.41292664,8.82619736 C5.77570654,8.34856577 8.43732047,5.72289476 8.92149034,2.40596052 L39.8810733,2.40596052 C40.3652433,5.72289476 43.0268571,8.34856577 46.3896369,8.82619736 L46.3896369,24.1837895 Z M46.3896369,29.5198026 C46.3896369,30.1185789 45.8957837,30.6044605 45.2901313,30.6044605 L42.1034131,30.6044605 C42.5413668,28.4829079 44.2390423,26.8085921 46.3896369,26.3761184 L46.3896369,29.5198026 Z M3.51243243,30.6044605 C2.90677992,30.6044605 2.41292664,30.1185789 2.41292664,29.5198026 L2.41292664,26.3761184 C4.56352123,26.8085921 6.26119693,28.4829079 6.6991506,30.6044605 L3.51243243,30.6044605 Z M2.41292664,3.49018421 C2.41292664,2.89184211 2.90677992,2.40596052 3.51243243,2.40596052 L6.6991506,2.40596052 C6.26119693,4.52707894 4.56352123,6.20182894 2.41292664,6.63386841 L2.41292664,3.49018421 Z M45.2901313,0.236644737 L3.51243243,0.236644737 C1.69371429,0.236644737 0.214355212,1.69602632 0.214355212,3.49018421 L0.214355212,29.5198026 C0.214355212,31.3143948 1.69371429,32.7737763 3.51243243,32.7737763 L45.2901313,32.7737763 C47.1092897,32.7737763 48.5882083,31.3143948 48.5882083,29.5198026 L48.5882083,3.49018421 C48.5882083,1.69602632 47.1092897,0.236644737 45.2901313,0.236644737 L45.2901313,0.236644737 Z" id="bqFill-49" fill="#D9A162"/>
            <path d="M24.5306873,5.82146053 C18.4895676,5.82146053 13.6126564,10.6325132 13.6126564,16.5920526 C13.6126564,22.5520263 18.4895676,27.3630789 24.5306873,27.3630789 C30.5722471,27.3630789 35.4491583,22.5520263 35.4491583,16.5920526 C35.4491583,10.6325132 30.5722471,5.82146053 24.5306873,5.82146053 Z M24.5306873,7.73632894 C29.4802239,7.73632894 33.5080772,11.7093552 33.5080772,16.5920526 C33.5080772,21.4751842 29.4802239,25.4482105 24.5306873,25.4482105 C19.5811506,25.4482105 15.5537375,21.4751842 15.5537375,16.5920526 C15.5537375,11.7093552 19.5811506,7.73632894 24.5306873,7.73632894 L24.5306873,7.73632894 Z" id="bqFill-50" fill="#4B8FB9"/>
            <path d="M28.7284401,16.3528026 L24.9919691,16.3528026 L24.9919691,12.1882895 C24.9919691,11.6615921 24.5548958,11.2308552 24.0214286,11.2308552 C23.4875212,11.2308552 23.050888,11.6615921 23.050888,12.1882895 L23.050888,16.8317368 C23.050888,16.9272632 23.0750965,16.9989079 23.0750965,17.0709868 C23.050888,17.1426316 23.050888,17.2385921 23.050888,17.3102368 C23.050888,17.8369342 23.4875212,18.2676711 24.0214286,18.2676711 L28.7284401,18.2676711 C29.2619073,18.2676711 29.6989807,17.8369342 29.6989807,17.3102368 C29.6989807,16.7835395 29.2619073,16.3528026 28.7284401,16.3528026" id="bqFill-51" fill="#4B8FB9"/>
          </g>
        </g>
      </g>
    </g>
  </g>
</svg>
